<?xml version="1.0" encoding="UTF-8"?>
<svg xmlns="http://www.w3.org/2000/svg" width="20" height="20" viewBox="0 0 20 20">
  <g id="b" data-name="Layer_6">
    <rect y="4" width="1" height="14" style="fill: #00ffd4;"/>
    <rect x="1" y="16" width="1" height="2" style="fill: #00ffd4;"/>
    <rect x="2" y="14" width="1" height="2" style="fill: #00ffd4;"/>
    <rect x="3" y="12" width="1" height="2" style="fill: #00ffd4;"/>
    <rect x="4" y="10" width="1" height="2" style="fill: #00ffd4;"/>
    <rect x="5" y="8" width="1" height="2" style="fill: #00ffd4;"/>
    <rect x="15" y="16" width="1" height="2" style="fill: #00ffd4;"/>
    <rect x="16" y="14" width="1" height="2" style="fill: #00ffd4;"/>
    <rect x="17" y="12" width="1" height="2" style="fill: #00ffd4;"/>
    <rect x="18" y="10" width="1" height="2" style="fill: #00ffd4;"/>
    <rect x="19" y="8" width="1" height="2" style="fill: #00ffd4;"/>
    <rect x="5" y="4" width="1" height="1" style="fill: #00ffd4;"/>
    <rect x="15" y="6" width="1" height="2" style="fill: #00ffd4;"/>
    <rect x="1" y="3" width="4" height="1" style="fill: #00ffd4;"/>
    <rect x="6" y="5" width="9" height="1" style="fill: #00ffd4;"/>
    <rect x="2" y="17" width="13" height="1" style="fill: #00ffd4;"/>
    <rect x="6" y="8" width="13" height="1" style="fill: #00ffd4;"/>
  </g>
</svg>