<?xml version="1.0" encoding="UTF-8"?>
<svg xmlns="http://www.w3.org/2000/svg" viewBox="0 0 20 20">
  <g id="b" data-name="Layer 2">
    <g>
      <g>
        <rect x="2" y="18" width="16" height="1" style="fill: #00ffd4; stroke-width: 0px;"/>
        <rect x="2" y="6" width="16" height="1" style="fill: #00ffd4; stroke-width: 0px;"/>
        <rect x="1" y="17" width="1" height="1" style="fill: #00ffd4; stroke-width: 0px;"/>
        <rect x="18" y="17" width="1" height="1" style="fill: #00ffd4; stroke-width: 0px;"/>
        <rect x="1" y="7" width="1" height="1" style="fill: #00ffd4; stroke-width: 0px;"/>
        <rect x="18" y="7" width="1" height="1" style="fill: #00ffd4; stroke-width: 0px;"/>
        <rect x="19" y="8" width="1" height="9" style="fill: #00ffd4; stroke-width: 0px;"/>
        <rect y="8" width="1" height="9" style="fill: #00ffd4; stroke-width: 0px;"/>
      </g>
      <polygon points="13 3 7 3 10 0 13 3" style="fill: #00ffd4; stroke-width: 0px;"/>
      <rect x="9" y="3" width="2" height="2" style="fill: #00ffd4; stroke-width: 0px;"/>
      <polygon points="3 6 17 6 20 9 20 16 17 19 3 19 0 16 0 9 3 6" style="fill: #00ffd4; stroke-width: 0px;"/>
    </g>
    <g id="c" data-name="ttx">
      <rect x="4" y="9" width="1" height="6" style="fill: #293d3a; stroke-width: 0px;"/>
      <rect x="13" y="11" width="1" height="1" style="fill: #293d3a; stroke-width: 0px;"/>
      <rect x="5" y="15" width="2" height="1" style="fill: #293d3a; stroke-width: 0px;"/>
      <rect x="3" y="11" width="4" height="1" style="fill: #293d3a; stroke-width: 0px;"/>
      <rect x="9" y="9" width="1" height="6" style="fill: #293d3a; stroke-width: 0px;"/>
      <rect x="10" y="15" width="2" height="1" style="fill: #293d3a; stroke-width: 0px;"/>
      <rect x="8" y="11" width="4" height="1" style="fill: #293d3a; stroke-width: 0px;"/>
      <rect x="14" y="12" width="1" height="1" style="fill: #293d3a; stroke-width: 0px;"/>
      <rect x="15" y="13" width="1" height="1" style="fill: #293d3a; stroke-width: 0px;"/>
      <rect x="16" y="14" width="1" height="1" style="fill: #293d3a; stroke-width: 0px;"/>
      <rect x="17" y="15" width="1" height="1" style="fill: #293d3a; stroke-width: 0px;"/>
      <rect x="16" y="12" width="1" height="1" style="fill: #293d3a; stroke-width: 0px;"/>
      <rect x="17" y="11" width="1" height="1" style="fill: #293d3a; stroke-width: 0px;"/>
      <rect x="14" y="14" width="1" height="1" style="fill: #293d3a; stroke-width: 0px;"/>
      <rect x="13" y="15" width="1" height="1" style="fill: #293d3a; stroke-width: 0px;"/>
      <rect x="2" y="15" width="1" height="1" style="fill: #293d3a; stroke-width: 0px;"/>
    </g>
  </g>
</svg>