<?xml version="1.0" encoding="UTF-8"?>
<svg id="a" data-name="Layer 5" xmlns="http://www.w3.org/2000/svg" xmlns:xlink="http://www.w3.org/1999/xlink" viewBox="0 0 256 256">
  <defs>
    <linearGradient id="b" x1="128" y1="0" x2="128" y2="149.333" gradientUnits="userSpaceOnUse">
      <stop offset="0" stop-color="#00ffcf"/>
      <stop offset=".994" stop-color="#00bbd6"/>
    </linearGradient>
    <linearGradient id="c" y1="160" y2="256" xlink:href="#b"/>
  </defs>
  <polygon points="202.667 0 128 74.667 53.333 0 0 0 0 64 32 64 117.333 149.333 138.667 149.333 224 64 256 64 256 0 202.667 0" style="fill: url(#b); stroke-width: 0px;"/>
  <polygon points="197.333 186.667 170.667 160 0 160 0 192 32 192 32 256 64 256 64 192 85.333 192 85.333 256 117.333 256 117.333 192 160 192 176 208 160 224 138.667 224 138.667 256 170.667 256 197.333 229.333 224 256 256 256 256 224 234.667 224 218.667 208 234.667 192 256 192 256 160 224 160 197.333 186.667" style="fill: url(#c); stroke-width: 0px;"/>
</svg>